<svg width="24px" height="24px" fill="none" version="1.1" viewBox="0 0 24 24" xmlns="http://www.w3.org/2000/svg">
 <rect x=".77139" y=".73282" width="21.985" height="22.139" ry="4.1926" opacity="0" stroke-width=".789"/>
 <g>
  <path d="m7.0769 1.8462c-0.72495 0-1.4146 0.14482-2.0409 0.40865-0.62631 0.26384-1.1884 0.64758-1.6611 1.1202s-0.85635 1.0347-1.1202 1.6611c-0.26384 0.62631-0.40865 1.3159-0.40865 2.0409v9.8462c0 0.72494 0.14482 1.4146 0.40865 2.0409 0.26384 0.62631 0.64758 1.1884 1.1202 1.6611 0.47261 0.47261 1.0347 0.85635 1.6611 1.1202 0.62631 0.26384 1.3159 0.40865 2.0409 0.40865h9.8462c0.72494 0 1.4146-0.14481 2.0409-0.40865 0.62631-0.26384 1.1884-0.64758 1.6611-1.1202 0.47261-0.47261 0.85635-1.0347 1.1202-1.6611 0.26384-0.62631 0.40865-1.3159 0.40865-2.0409v-9.8462c0-0.72495-0.14481-1.4146-0.40865-2.0409-0.26384-0.62631-0.64758-1.1884-1.1202-1.6611-0.47261-0.47261-1.0347-0.85635-1.6611-1.1202-0.62631-0.26384-1.3159-0.40865-2.0409-0.40865z" fill="#fff"/>
  <path d="m7.0769 0c-3.8975 0-7.0769 3.1794-7.0769 7.0769v9.8462c0 3.8975 3.1794 7.0769 7.0769 7.0769h9.8462c3.8975 0 7.0769-3.1794 7.0769-7.0769v-9.8462c0-3.8975-3.1794-7.0769-7.0769-7.0769zm0 1.8462h9.8462c2.8998 0 5.2308 2.331 5.2308 5.2308v9.8462c0 2.8998-2.331 5.2308-5.2308 5.2308h-9.8462c-2.8998 0-5.2308-2.331-5.2308-5.2308v-9.8462c0-2.8998 2.331-5.2308 5.2308-5.2308zm-1.2596 15.385a0.92308 0.92308 0 0 0-0.64423 0.30289l-0.012024 0.01443a0.92308 0.92308 0 0 0 0.067307 1.3029 0.92308 0.92308 0 0 0 1.3029-0.06731l0.012026-0.01443a0.92308 0.92308 0 0 0-0.067309-1.3029 0.92308 0.92308 0 0 0-0.65865-0.23558zm0.028846-12.308a0.92308 0.92308 0 0 0-0.92308 0.92308 0.92308 0.92308 0 0 0 0.92308 0.92308c3.4872 0 6.3019 1.148 8.2692 3.1154 1.9674 1.9674 3.1154 4.7821 3.1154 8.2692a0.92308 0.92308 0 0 0 0.92308 0.92308 0.92308 0.92308 0 0 0 0.92308-0.92308c0-3.8974-1.3135-7.2366-3.6538-9.5769-2.3403-2.3403-5.6795-3.6538-9.5769-3.6538zm0 6.1538a0.92308 0.92308 0 0 0-0.92308 0.92308 0.92308 0.92308 0 0 0 0.92308 0.92308c1.641 0 2.9173 0.53264 3.8077 1.4231 0.89043 0.89043 1.4231 2.1667 1.4231 3.8077a0.92308 0.92308 0 0 0 0.92308 0.92308 0.92308 0.92308 0 0 0 0.92308-0.92308c0-2.0513-0.69812-3.852-1.9615-5.1154-1.2634-1.2634-3.0641-1.9615-5.1154-1.9615z" color="#000000" color-rendering="auto" dominant-baseline="auto" fill="currentColor" image-rendering="auto" shape-rendering="auto" solid-color="#000000" stop-color="#000000" style="font-feature-settings:normal;font-variant-alternates:normal;font-variant-caps:normal;font-variant-east-asian:normal;font-variant-ligatures:normal;font-variant-numeric:normal;font-variant-position:normal;font-variation-settings:normal;inline-size:0;isolation:auto;mix-blend-mode:normal;shape-margin:0;shape-padding:0;text-decoration-color:#000000;text-decoration-line:none;text-decoration-style:solid;text-indent:0;text-orientation:mixed;text-transform:none;white-space:normal"/>
 </g>
</svg>
